<?xml version="1.0" encoding="UTF-8" standalone="no"?>
<!-- Created with Inkscape (http://www.inkscape.org/) -->

<svg
   width="57.742672mm"
   height="27.036884mm"
   viewBox="0 0 57.742672 27.036884"
   version="1.1"
   id="svg1"
   xmlns="http://www.w3.org/2000/svg"
   xmlns:svg="http://www.w3.org/2000/svg">
  <defs
     id="defs1" />
  <g
     id="layer1"
     transform="translate(-74.657715,-127.40188)">
    <path
       style="fill:#3ab6a9;stroke-width:0.282222"
       d="m 118.96661,127.40188 c -2.65289,0 -5.22111,0.762 -7.50711,2.06022 -2.22955,1.27 -4.17689,2.99156 -5.89844,4.88245 -0.67734,0.73377 -1.32645,1.524 -1.97556,2.31422 -0.62089,0.762 -1.18533,1.55222 -1.778,2.34244 -0.28222,0.39511 -0.59267,0.81845 -0.87489,1.21356 -0.59266,0.81844 -1.185334,1.60866 -1.834444,2.34244 -0.62089,0.67734 -1.27,1.32645 -1.91911,1.97556 -1.63689,1.60866 -3.38667,3.10444 -5.334,4.34622 -1.524,0.95956 -3.33023,1.89089 -5.19289,1.89089 -4.99534,0 -9.45445,-3.95111 -9.45445,-9.96245 0,-6.01133 4.28978,-9.28511 9.45445,-9.28511 2.99155,0 5.61622,1.27 8.18444,3.47134 l -1.38289,1.41111 3.35845,0.84666 3.358444,0.84667 -0.931334,-3.33022 -0.93134,-3.33022 -1.49577,1.55222 c -2.62467,-2.34245 -5.87023,-4.23333 -9.96245,-4.23333 -6.68866,0 -12.192,4.826 -12.192,12.192 0,7.05555 5.50334,12.192 11.684,12.192 2.56822,0 5.05178,-0.762 7.22489,-2.06023 1.97556,-1.15711 3.69711,-2.68111 5.27756,-4.34622 0.53622,-0.56444 1.04422,-1.12889 1.552224,-1.69333 0.67733,-0.73378 1.29822,-1.46756 1.86267,-2.31422 0.254,-0.36689 0.47977,-0.73378 0.73377,-1.10067 0.45156,-0.67733 0.87489,-1.35467 1.35467,-2.00378 0.90311,-1.21355 1.83445,-2.39889 2.82222,-3.52778 1.69334,-1.89089 3.61245,-3.64066 5.842,-4.826 1.778,-0.95955 3.75356,-1.46755 5.78556,-1.46755 7.05555,0 11.00667,4.91066 11.00667,11.176 0,5.842 -3.78178,10.668 -10.30112,10.668 -3.72533,0 -6.99911,-1.016 -10.44222,-3.97934 l 1.60867,-1.94733 -3.41489,-0.56444 -3.41489,-0.56445 1.21356,3.24556 1.21355,3.24555 1.35467,-1.63689 c 3.33022,3.01978 6.97089,4.99534 11.71222,4.99534 7.90222,0 13.06689,-6.01134 13.06689,-13.57489 -0.0282,-7.95867 -5.36222,-13.462 -13.43378,-13.462 z"
       id="path5" />
  </g>
</svg>
